{"title":"Tinker.Tailor.Soldier.Spy.2011.R5.DVDRip.V2.XVID.AC3-SIC","uid":6941569,"size":1494535190,"categoryP":"video","categoryS":"movies","magnet":"?xt=urn:btih:12afcb59f696fef80463afb1a7fed2418acaa4af&amp;dn=Tinker.Tailor.Soldier.Spy.2011.R5.DVDRip.V2.XVID.AC3-SIC&amp;tr=udp%3A%2F%2Ftracker.openbittorrent.com%3A80&amp;tr=udp%3A%2F%2Fopen.demonii.com%3A1337&amp;tr=udp%3A%2F%2Ftracker.coppersurfer.tk%3A6969&amp;tr=udp%3A%2F%2Fexodus.desync.com%3A6969","seeders":0,"leechers":1,"uploader":"TvTeam","files":5,"time":1326058572,"description":". \n &lt;a href=&quot;\nhttp://www.torrenting.com&quot; rel=&quot;nofollow&quot; target=&quot;_NEW&quot;&gt;\nhttp://www.torrenting.com&lt;/a&gt;          :     Once &amp; For all ;)\n\n\n               www . Torrenting . Com \n\n(((((((((((((= Enjoy No RAR releases =))))))))))))))))))))\n\n\n...................................NFO:....................................\n\n.\n\n\n\n\n\nUUUUUUUUUUUUUUUUUUUUUUUU\nUUUUUUUUUUUUUUUUUUUUUUUUUUUUUU\nUUUUUUUUUUUUUUU\nUUUUUUUUU\nUUUUUU\nUUUUUUU\nUUUUUUUUUUU\nUUUUUUUUUUU\nUUUUUUUUUUUUUU\nUUUUUUUUUUU\nUUUUUUUUU\nUUUUUUUU\nUUUUUUUU\nUUUUUUUU\nUUUUUUUUU\nUUUUUUUUU\nUUUUUUUUU\nUUUUUUUUU\nUUUUUUUUUUUUUU\nUUUUUUUUUUUUUUUUUUUUUUUU\nUUUUUUUUUUUUUUUUUUUUUUUUUU\nUUUUUUUUU\n\n\n\n\n\n\n\n\n\n\nU?U?U?U?U?U?U?\n\nEAAUAA?EAAUAAAAAUEAAUAA?AAA?UAAUUAAAAAU\nEAA?  EAA?AAAAAA?EAA?        AAAAAA?\n  AAAU        \n              \nUAAAAAU      UAAAAAUAAAAAA?UAAAAAU        AAAAAA?\n            AAAAAA?UAAAAAUAAAAAA?        UAAAAAU\n                    \n                    \nAAAU      AAAU      AAAAAAAAAUAAAAAAAAAUAAAAAAAAAUAAAU  AAAU   AAAU   AAAAAAAAAU\n\nTinker.Tailor.Soldier.Spy.2011.R5.DVDRip.V2.XVID.AC3-SIC \n\nPoster:\n\nIMDB Link:\nwww.imdb.com/title/tt1340800/\n\nDescription:\nIn the bleak days of the Cold War, espionage veteran George Smiley is forced from \nsemi-retirement to uncover a Soviet agent within MI6's echelons. \n\nMediaInfo:\nFormat                           : AVI\nFormat/Info                      : Audio Video Interleave\nFile size                        : 1.37 GiB\nDuration                         : 2h 2mn\nOverall bit rate                 : 1 604 Kbps\n\nVideo\nID                               : 0\nFormat                           : MPEG-4 Visual\nFormat profile                   : Advanced Simple@L5\nFormat settings, BVOP            : 2\nFormat settings, QPel            : No\nFormat settings, GMC             : No warppoints\nFormat settings, Matrix          : Default (MPEG)\nMuxing mode                      : Packed bitstream\nCodec ID                         : XVID\nCodec ID/Hint                    : XviD\nDuration                         : 2h 2mn\nBit rate                         : 1 276 Kbps\nWidth                            : 720 pixels\nHeight                           : 304 pixels\nDisplay aspect ratio             : 2.35:1\nFrame rate                       : 25.000 fps\nColor space                      : YUV\nChroma subsampling               : 4:2:0\nBit depth                        : 8 bits\nScan type                        : Progressive\nCompression mode                 : Lossy\nBits/(Pixel*Frame)               : 0.233\nStream size                      : 1.09 GiB (80%)\nWriting library                  : XviD 64\n\nAudio\nID                               : 1\nFormat                           : AC-3\nFormat/Info                      : Audio Coding 3\nMode extension                   : CM (complete main)\nCodec ID                         : 2000\nDuration                         : 2h 2mn\nBit rate mode                    : Constant\nBit rate                         : 320 Kbps\nChannel(s)                       : 6 channels\nChannel positions                : Front: L C R, Side: L R, LFE\nSampling rate                    : 48.0 KHz\nBit depth                        : 16 bits\nCompression mode                 : Lossy\nStream size                      : 280 MiB (20%)\nAlignment                        : Aligned on interleaves\nInterleave, duration             : 64 ms (1.60 video frames)\nInterleave, preload duration     : 192 ms\nTitle                            : Studio English Audio\n\nScreenshots:\n\nNote : \nHere we go with V2 which now includes hardcoded subs when needed, \nenglish of course :) along with better tweakes making video even \nbetter :P so enjoy this fine release with 5.1CH ENG studio audio.\n\nSource: \nRussian DVD9... Big thanks\nSubtitles When Needed.... OBSERVER... Cheers  \n\nEnjoy!\n\nRespects to 26K, T00NG0D, ELEKTRI4KA, PA, YeFsTe, Box, MrRep and everyone in the struggle...","torrent":{"xt":"urn:btih:12afcb59f696fef80463afb1a7fed2418acaa4af","amp;dn":"Tinker.Tailor.Soldier.Spy.2011.R5.DVDRip.V2.XVID.AC3-SIC","amp;tr":["udp%3A%2F%2Ftracker.openbittorrent.com%3A80","udp%3A%2F%2Fopen.demonii.com%3A1337","udp%3A%2F%2Ftracker.coppersurfer.tk%3A6969","udp%3A%2F%2Fexodus.desync.com%3A6969"],"infoHash":"12afcb59f696fef80463afb1a7fed2418acaa4af","infoHashBuffer":{"type":"Buffer","data":[18,175,203,89,246,150,254,248,4,99,175,177,167,254,210,65,138,202,164,175]},"announce":[],"urlList":[]}}